# xmcd
#
# Track frame offsets: 
#        150
#        13808
#        30525
#        44288
#        57991
#        74022
#        93598
#        108073
#        118012
#        130329
#        146407
#        158398
#        173373
#        193623
#
# Disc length: 2840 seconds
#
# Revision: 1
# Processed by: cddbd v1.5.2PL0 Copyright (c) Steve Scherf et al.
# Submitted via: ExactAudioCopyFreeDBPlugin 1.0
#
DISCID=b60b160e
DTITLE=Kallick Band, Kathy - Between the Hollow and the High Rise
DYEAR=2010
DGENRE=Bluegrass
TTITLE0=Where Is My Little Cabin Home
TTITLE1=Whistle Stop Town
TTITLE2=There's a Higher Power
TTITLE3=My House
TTITLE4=Panhandle Rag
TTITLE5=Lonesome Night
TTITLE6=The Snow
TTITLE7=New White House Blues
TTITLE8=Girl Next Door
TTITLE9=Come Walk with Me
TTITLE10=Monobrow
TTITLE11=Get Along Home Cindy
TTITLE12=Wildflowers
TTITLE13=Winterlight Aire
EXTD=
EXTT0=
EXTT1=
EXTT2=
EXTT3=
EXTT4=
EXTT5=
EXTT6=
EXTT7=
EXTT8=
EXTT9=
EXTT10=
EXTT11=
EXTT12=
EXTT13=
PLAYORDER=
